<svg width="108" height="108" viewBox="0 0 108 108" fill="none" xmlns="http://www.w3.org/2000/svg">
<g filter="url(#filter0_d_2_416)">
<circle cx="54" cy="50" r="50" fill="white"/>
</g>
<path d="M54.062 98.2609C80.6815 98.2609 102.261 76.6816 102.261 50.0622C102.261 23.4427 80.6815 1.8634 54.062 1.8634C27.4426 1.8634 5.86328 23.4427 5.86328 50.0622C5.86328 76.6816 27.4426 98.2609 54.062 98.2609Z" fill="url(#paint0_linear_2_416)"/>
<path d="M43.0482 21.1668L37.2454 24.009L36.5941 23.0024C36.6533 22.7655 36.831 22.5287 37.0678 22.2326L34.344 16.489C33.9888 16.5482 33.6335 16.489 33.4559 16.3706L33.1006 15.2456L38.8442 12.5218L39.91 14.7126L39.0218 15.2456C38.7257 15.1863 38.3705 14.8903 38.1336 14.535L36.1796 15.4824L37.1862 17.6733L38.9626 16.8443C38.9626 16.5482 38.9626 16.3114 39.0218 16.1929L39.8508 15.8969L40.9166 18.147L40.1468 18.6206C39.9692 18.5614 39.7916 18.443 39.5547 18.2654L37.7784 19.0943L38.9034 21.522L40.9758 20.5154C40.9166 20.101 40.9166 19.6273 40.9758 19.3312L41.9824 18.9759L43.0482 21.1668Z" fill="white"/>
<path d="M52.7 17.6141C53.0552 17.6733 53.4105 17.7917 53.5881 17.9694L53.6474 19.1536L50.3907 19.6273L50.0946 18.5023C50.2131 18.3246 50.4499 18.147 50.6867 17.9694L50.1538 16.8443L47.3709 17.2588L47.1932 18.443C47.4893 18.5023 47.7853 18.6207 47.963 18.7983L48.0222 19.9826L44.884 20.4563L44.5879 19.3312C44.7063 19.0944 45.0616 18.8575 45.4169 18.6799L46.8972 10.331L48.792 10.0349L52.7 17.6141ZM47.6077 15.9561L49.5617 15.6601L48.792 14.0613C48.259 12.9955 48.1406 12.1073 48.1406 12.1073H47.963C47.963 12.1073 48.0814 12.9363 47.9038 14.1206L47.6077 15.9561Z" fill="white"/>
<path d="M61.1671 13.0548C61.0487 12.8179 61.0487 12.1666 61.0487 11.9298C60.8118 11.8113 60.3974 11.6929 60.0421 11.6337C59.3908 11.5153 58.8578 11.8113 58.7986 12.4034C58.6802 12.9956 58.8578 13.3508 59.8052 13.7653L60.9895 14.2982C62.0553 14.7719 63.0027 15.6009 62.7658 17.3181C62.4698 19.2721 60.6934 20.101 58.7986 19.8642C57.792 19.6866 56.4894 19.2721 55.7788 18.5615C55.838 17.9694 56.1341 17.022 56.4301 16.5483L57.7328 16.7259C57.792 17.022 57.8512 17.4957 57.8512 17.9102C58.2065 18.0878 58.621 18.2655 58.9763 18.2655C59.746 18.3839 60.4566 18.0878 60.575 17.3181C60.6342 16.9036 60.6342 16.4299 59.8052 16.0746L58.4434 15.4233C57.3183 14.8904 56.4301 14.0022 56.667 12.3442C56.9038 10.6271 58.4434 9.79811 60.3381 10.035C61.2855 10.1534 62.2922 10.5679 63.1803 11.1008C63.1211 11.6929 62.8251 12.6403 62.529 13.114L61.1671 13.0548Z" fill="white"/>
<path d="M66.1409 21.6995L66.4961 20.5744C66.6738 20.456 67.0291 20.456 67.3843 20.456L68.0357 19.0349L67.9172 13.765C67.6212 13.469 67.3843 13.1729 67.3251 12.9361L67.9172 11.9887L67.9764 11.9294L70.9371 13.2913L70.5818 14.4164C70.4042 14.5348 70.1081 14.5348 69.812 14.5348V15.719C69.812 16.9625 69.6344 17.9691 69.6344 17.9691L69.812 18.0283C69.812 18.0283 70.5226 17.1993 71.4108 16.4296L72.2397 15.6598C72.0029 15.423 71.8252 15.1269 71.766 14.8901L72.3582 13.8834L75.2595 15.1861L74.9043 16.3111C74.6674 16.4296 74.2529 16.4296 73.8385 16.4296L69.8712 19.8047L69.2199 21.285C69.4568 21.5218 69.6344 21.8179 69.7528 21.9955L69.1607 23.0021L66.1409 21.6995Z" fill="white"/>
<path d="M28.127 81.2081L31.206 77.4186C31.2652 77.3593 31.3244 77.3593 31.3836 77.4186L31.9757 77.8922C32.035 77.9515 32.035 78.0107 32.035 78.0699L31.5613 81.6226V81.6818C31.5613 81.6818 31.5613 81.6818 31.6205 81.6818L33.5153 79.3726C33.5745 79.3133 33.6337 79.3133 33.6929 79.3726L34.285 79.8463C34.3442 79.9055 34.3442 79.9647 34.285 80.0239L31.206 83.8135C31.1468 83.8727 31.0876 83.8727 31.0284 83.8135L30.4362 83.3398C30.377 83.2806 30.377 83.2214 30.377 83.1621L30.8507 79.6094V79.5502C30.8507 79.5502 30.8507 79.5502 30.7915 79.5502L28.8967 81.9187C28.8375 81.9779 28.7783 81.9779 28.7191 81.9187L28.127 81.445C28.127 81.3266 28.127 81.2674 28.127 81.2081Z" fill="white"/>
<path d="M33.6336 85.2343C33.4559 84.9382 33.3967 84.7014 33.3967 84.3461C33.3967 83.9908 33.4559 83.754 33.6336 83.4579L35.2915 80.6157C35.3507 80.5565 35.4099 80.5565 35.4692 80.5565L36.1205 80.971C36.1797 81.0302 36.1797 81.0894 36.1797 81.1486L34.5218 83.9908C34.4033 84.2277 34.3441 84.4645 34.4033 84.6422C34.4625 84.879 34.581 85.0567 34.8178 85.1751C35.0547 85.2935 35.2915 85.3527 35.4692 85.2935C35.706 85.2343 35.8836 85.1159 36.0021 84.879L37.66 82.0368C37.7192 81.9776 37.7784 81.9776 37.8376 81.9776L38.489 82.3921C38.5482 82.4513 38.5482 82.5105 38.5482 82.5697L36.8903 85.4119C36.7126 85.708 36.4758 85.9448 36.2389 86.0633C35.9429 86.2409 35.6468 86.3001 35.3507 86.2409C35.0547 86.2409 34.6994 86.1225 34.4033 85.9448C34.0481 85.708 33.8112 85.4711 33.6336 85.2343Z" fill="white"/>
<path d="M37.8969 87.5437L39.6733 82.9843C39.7325 82.9251 39.7325 82.8659 39.8509 82.9251L40.5615 83.2212C40.6207 83.2212 40.6799 83.2804 40.6799 83.3396L41.0352 85.2936C41.0352 85.2936 41.0352 85.2936 41.0352 85.3528C41.0352 85.3528 41.0352 85.3528 41.0944 85.3528L42.6931 84.1686C42.7523 84.1093 42.8115 84.1093 42.8707 84.1686L43.5813 84.4646C43.6405 84.5238 43.6997 84.5238 43.6405 84.6423L41.8641 89.2016C41.8049 89.2608 41.8049 89.32 41.6865 89.2608L40.976 88.9648C40.9167 88.9055 40.8575 88.9055 40.9167 88.7871L42.0418 85.8265V85.7673C42.0418 85.7673 42.0418 85.7673 41.9826 85.7673L40.8575 86.6555C40.7983 86.7147 40.7391 86.7147 40.6799 86.6555L40.3246 86.537C40.2654 86.537 40.2062 86.4778 40.2062 86.4186L39.9694 84.9975V84.9383C39.9694 84.9383 39.9694 84.9383 39.9101 84.9383L38.7851 87.8989C38.7259 87.9581 38.7259 88.0174 38.6075 87.9581L37.8969 87.6621C37.8969 87.7213 37.8377 87.6621 37.8969 87.5437Z" fill="white"/>
<path d="M47.2524 87.84C47.6669 88.1952 47.7853 88.6097 47.6669 89.2019C47.5485 89.6756 47.3117 89.9716 46.9564 90.1493C46.6011 90.3269 46.1274 90.3269 45.6537 90.2085L43.8181 89.794C43.7589 89.794 43.6997 89.7348 43.6997 89.6163L44.7655 84.8202C44.7655 84.7609 44.8247 84.7017 44.9432 84.7017L46.7195 85.057C47.8446 85.2938 48.3183 85.886 48.1406 86.7741C48.0222 87.4255 47.7261 87.7215 47.2524 87.84ZM46.4235 89.2611C46.6011 89.2019 46.6603 89.0242 46.7195 88.8466C46.7787 88.6689 46.7195 88.4913 46.6603 88.3729C46.6011 88.2545 46.4235 88.136 46.1866 88.0768L45.2984 87.8992C45.2984 87.8992 45.2392 87.8992 45.2392 87.9584L45.0024 89.1426C45.0024 89.1426 45.0024 89.2019 45.0616 89.2019L45.9498 89.3795C46.1274 89.3795 46.305 89.3795 46.4235 89.2611ZM45.6537 85.886L45.4169 87.011C45.4169 87.011 45.4169 87.0702 45.4761 87.0702L46.305 87.2478C46.5419 87.3071 46.7195 87.3071 46.838 87.1886C46.9564 87.1294 47.0748 86.9518 47.134 86.7741C47.1932 86.5965 47.134 86.4189 47.0156 86.3005C46.8972 86.182 46.7787 86.0636 46.5419 86.0044L45.6537 85.886Z" fill="white"/>
<path d="M52.9959 86.8332L50.6274 86.6556C50.6274 86.6556 50.5682 86.6556 50.5682 86.7148L50.509 87.8398C50.509 87.8398 50.509 87.899 50.5682 87.899L52.1077 88.0174C52.1669 88.0174 52.2261 88.0767 52.2261 88.1359L52.1669 88.7872C52.1669 88.8464 52.1077 88.9056 52.0485 88.9056L50.509 88.7872C50.509 88.7872 50.4497 88.7872 50.4497 88.8464L50.3905 90.0307C50.3905 90.0307 50.3905 90.0899 50.4497 90.0899L52.8182 90.2675C52.8774 90.2675 52.9367 90.3267 52.9367 90.3859L52.8774 91.0373C52.8774 91.0965 52.8182 91.1557 52.759 91.1557L49.4431 90.9188C49.3839 90.9188 49.3247 90.8596 49.3247 90.8004L49.68 85.945C49.68 85.8858 49.7392 85.8266 49.7984 85.8266L53.1143 86.0634C53.1735 86.0634 53.2327 86.1227 53.2327 86.1819L53.1735 86.8332C53.1735 86.8332 53.1143 86.8924 52.9959 86.8332Z" fill="white"/>
<path d="M57.2592 90.8593L56.2526 88.9053C56.2526 88.9053 56.2526 88.8461 56.1934 88.8461L55.542 88.9053C55.542 88.9053 55.4828 88.9053 55.4828 88.9645L55.6013 90.9185C55.6013 90.9777 55.542 91.037 55.4828 91.037L54.7131 91.0962C54.6539 91.0962 54.5946 91.037 54.5946 90.9778L54.2986 86.1224C54.2986 86.0631 54.3578 86.0039 54.417 86.0039L56.4894 85.8855C56.7855 85.8855 57.0816 85.9447 57.3184 86.0631C57.5553 86.1816 57.7329 86.3592 57.9105 86.5961C58.029 86.8329 58.1474 87.0697 58.1474 87.3658C58.1474 87.7211 58.0882 87.9579 57.9697 88.254C57.7921 88.4908 57.6145 88.6685 57.3184 88.7869C57.3184 88.7869 57.3184 88.7869 57.3184 88.8461L58.3842 90.8001V90.8593V90.9185H58.325L57.496 90.9778C57.3776 90.9778 57.3184 90.9185 57.2592 90.8593ZM55.3644 86.8921L55.4236 88.1356C55.4236 88.1356 55.4236 88.1948 55.4828 88.1948L56.4302 88.1356C56.6079 88.1356 56.7855 88.0764 56.9039 87.9579C57.0223 87.8395 57.0816 87.6619 57.0816 87.4842C57.0816 87.3066 57.0223 87.129 56.8447 87.0105C56.7263 86.8921 56.5486 86.8329 56.3118 86.8329L55.3644 86.8921C55.4236 86.8329 55.3644 86.8329 55.3644 86.8921Z" fill="white"/>
<path d="M62.3516 90.1488L61.1082 85.4118C61.1082 85.3526 61.1082 85.2934 61.2266 85.2342L62.9437 84.7605C63.299 84.642 63.6543 84.642 63.9503 84.7012C64.2464 84.7605 64.4833 84.8789 64.7201 85.0565C64.8977 85.2342 65.0754 85.471 65.1346 85.7671L65.6675 87.7211C65.7267 88.0171 65.7267 88.3132 65.6675 88.55C65.6083 88.7869 65.4306 89.0237 65.1938 89.2606C64.9569 89.4382 64.6609 89.6159 64.3056 89.6751L62.5885 90.1488C62.4108 90.2672 62.3516 90.208 62.3516 90.1488ZM63.1806 89.1422L64.0096 88.9053C64.2464 88.8461 64.3648 88.7277 64.4832 88.55C64.6017 88.3724 64.6017 88.1356 64.5425 87.8987L64.128 86.2408C64.0688 86.0039 63.9503 85.8263 63.7727 85.7079C63.5951 85.5894 63.4174 85.5894 63.1806 85.6486L62.3516 85.8855C62.3516 85.8855 62.2924 85.8855 62.2924 85.9447L63.1806 89.1422Z" fill="white"/>
<path d="M70.2269 87.5439L68.6282 86.0636H68.569L67.9768 86.3004C67.9768 86.3004 67.9176 86.3596 67.9768 86.3596L68.7466 88.136C68.8058 88.1952 68.7466 88.2544 68.6874 88.3136L67.9768 88.6097C67.9176 88.6689 67.8584 88.6097 67.7992 88.5505L65.9044 84.0504C65.8452 83.9912 65.9044 83.9319 65.9636 83.8727L67.8584 83.0438C68.1545 82.9253 68.4505 82.8661 68.6874 82.9253C68.9834 82.9253 69.2203 83.0438 69.3979 83.2214C69.6348 83.399 69.7532 83.6359 69.8716 83.8727C69.9901 84.1688 70.0493 84.4648 69.9901 84.7609C69.9308 85.057 69.8124 85.2938 69.5756 85.4715C69.5756 85.4715 69.5756 85.4715 69.5756 85.5307L71.2335 87.011L71.2927 87.0702V87.1294L71.2335 87.1886L70.4637 87.4847C70.3453 87.6031 70.2861 87.6031 70.2269 87.5439ZM67.0887 84.4648L67.5623 85.5899C67.5623 85.5899 67.6216 85.6491 67.6216 85.5899L68.5097 85.2346C68.6874 85.1754 68.8058 85.057 68.9242 84.8793C68.9834 84.7017 68.9834 84.5241 68.9242 84.3464C68.865 84.1688 68.7466 84.0504 68.569 83.9911C68.3913 83.9319 68.2137 83.9319 68.036 83.9911L67.0887 84.4648C67.0887 84.4056 67.0887 84.4056 67.0887 84.4648Z" fill="white"/>
<path d="M75.6151 84.5831L75.0822 84.1094H75.0229L73.4834 85.0568V85.116L73.6611 85.8265C73.6611 85.8858 73.6611 85.945 73.6019 86.0042L72.8913 86.4779C72.8321 86.4779 72.8321 86.4779 72.7729 86.4779C72.7137 86.4779 72.7137 86.4187 72.7137 86.4187L71.4702 81.4448C71.4702 81.3856 71.4702 81.3264 71.5294 81.2672L72.4176 80.6751C72.4768 80.6159 72.536 80.6159 72.5952 80.6751L76.5033 83.991C76.5033 83.991 76.5033 83.991 76.5033 84.0502V84.1094C76.5033 84.1094 76.5033 84.1686 76.444 84.1686L75.7335 84.6423C75.7335 84.6423 75.6743 84.6423 75.6151 84.5831ZM73.3058 84.2278L74.4308 83.5173V83.4581L72.7137 81.9185C72.7137 81.9185 72.7137 81.9185 72.6545 81.9185C72.6545 81.9185 72.6545 81.9185 72.6545 81.9778L73.3058 84.2278Z" fill="white"/>
<path d="M78.043 82.8658L73.8982 80.0236C73.839 79.9644 73.839 79.9052 73.8982 79.846L74.5495 79.3131C74.6087 79.2539 74.6679 79.2539 74.7271 79.3131L77.1548 81.0895H77.2141C77.2141 81.0895 77.2141 81.0895 77.2141 81.0302L75.793 78.3657C75.7337 78.3065 75.793 78.2473 75.793 78.1881L76.4443 77.6551C76.5035 77.5959 76.5627 77.5959 76.6219 77.6551L79.0496 79.4315C79.0496 79.4315 79.0496 79.4315 79.1088 79.4315C79.1088 79.4315 79.1088 79.4315 79.1088 79.3723L77.6878 76.7078C77.6285 76.6485 77.6878 76.5893 77.6878 76.5301L78.2799 75.9972C78.3391 75.9972 78.3391 75.938 78.3983 75.9972C78.4575 75.9972 78.4575 76.0564 78.4575 76.0564L80.7076 80.5565C80.7668 80.6158 80.7076 80.675 80.6484 80.7342L80.0562 81.2671C79.997 81.3263 79.9378 81.3263 79.8786 81.2671L77.2733 79.3723H77.2141C77.2141 79.3723 77.2141 79.3723 77.2141 79.4315L78.6944 82.2145C78.7536 82.2737 78.6944 82.3329 78.6944 82.3921L78.1022 82.8658C78.1614 82.925 78.1022 82.925 78.043 82.8658Z" fill="white"/>
<path d="M38.9034 28.9238H39.1402C40.0876 28.9238 41.6271 29.6935 43.6996 31.2923C44.943 30.6409 46.2457 30.108 47.5484 29.7527C49.1471 29.1606 51.5156 28.9238 54.713 29.1014C62.9435 29.279 68.3318 32.1804 70.8188 37.8056C71.0556 38.8714 71.9438 40.1741 73.4833 41.5952C72.2991 42.1873 71.1148 44.0229 69.8714 47.1611C68.3318 49.4704 66.0226 51.1284 63.062 52.0165V52.1942C66.97 53.5561 69.7529 55.7469 71.2925 58.7075C71.7662 60.3655 72.832 61.7866 74.4899 63.03C72.7728 64.3327 71.8254 65.6353 71.5293 66.938C68.3318 73.0369 61.9961 76.0567 52.4038 76.0567H51.5748C45.6536 76.0567 41.0942 74.0435 37.7191 70.0171C36.4757 68.2407 35.8835 66.1683 35.8835 63.859C35.8835 60.6615 37.1862 58.4707 39.7323 57.3456L40.5613 57.2272H41.2126C42.8706 57.2272 43.7588 57.8785 43.7588 59.1812C43.7588 60.0694 43.4035 60.8392 42.693 61.4313C42.16 62.0826 41.864 62.9708 41.864 64.155C41.864 68.4183 44.1733 70.9645 48.7918 71.675L50.6274 71.7934C54.5946 71.7934 57.2592 70.1947 58.5026 66.9972C58.8579 65.813 59.0355 64.6287 59.0355 63.4445V61.9642C59.0355 56.9904 56.7855 53.9113 52.2261 52.7271C51.0419 52.6679 50.4498 52.5494 50.4498 52.3718V52.2534C52.8182 51.7797 54.5354 51.0691 55.542 50.181C57.496 48.523 58.5026 45.6216 58.5026 41.4175C58.5026 37.0358 57.1999 34.4305 54.5354 33.6015C53.5288 33.187 52.2261 32.9502 50.6274 32.9502C48.1997 32.8318 46.1865 33.4239 44.7062 34.7266C44.4101 34.845 43.9956 35.3779 43.4627 36.3253C42.9298 37.2135 42.3969 38.8714 41.864 41.1807V41.5952C41.864 42.0689 42.16 43.1347 42.693 44.7334C42.8114 45.5032 42.3969 45.9177 41.3903 45.8585C39.081 45.3256 37.956 43.0755 37.956 39.2267C37.956 37.628 38.3705 35.2003 39.2586 31.8844V31.766C39.2586 31.4699 38.9626 30.7593 38.4297 29.5751V29.279L38.9034 28.9238ZM64.8383 37.5095L63.1212 41.832L64.9568 45.6216L67.0884 41.832C65.7857 38.9898 65.016 37.5095 64.8383 37.5095ZM64.8383 58.8259L63.1212 63.1484L64.9568 66.938L67.0884 63.03C65.7857 60.4839 65.0752 59.122 65.0752 58.8259H64.8383Z" fill="white"/>
<path d="M54.0618 96.4258C53.6473 96.4258 53.292 96.4258 52.8775 96.4258C52.6999 96.4258 52.5815 96.3074 52.5815 96.1297C52.5815 95.9521 52.6999 95.8337 52.8775 95.8337C53.6473 95.8337 54.4763 95.8337 55.246 95.8337C55.4237 95.8337 55.5421 95.9521 55.5421 96.1297C55.5421 96.3074 55.4237 96.4258 55.246 96.4258C54.8908 96.4258 54.4763 96.4258 54.0618 96.4258ZM50.5683 96.3074C49.7393 96.2482 48.9695 96.189 48.1998 96.0705C48.0221 96.0705 47.9037 95.8929 47.9629 95.7153C47.9629 95.5376 48.1406 95.4192 48.3182 95.4784C49.088 95.5968 49.8577 95.6561 50.6867 95.7153C50.8643 95.7153 50.9827 95.8929 50.9827 96.0113C50.8643 96.189 50.6867 96.3074 50.5683 96.3074ZM57.6737 96.3074C57.4961 96.3074 57.3777 96.189 57.3777 96.0113C57.3777 95.8337 57.4961 95.7153 57.6737 95.7153C58.4435 95.6561 59.2132 95.5968 60.0422 95.4784C60.2199 95.4784 60.3383 95.5968 60.3975 95.7153C60.3975 95.8929 60.2791 96.0113 60.1606 96.0705C59.2725 96.1298 58.4435 96.2482 57.6737 96.3074ZM45.8313 95.7153C45.0023 95.5968 44.2325 95.4192 43.4628 95.2416C43.2852 95.1824 43.2259 95.0639 43.2259 94.8863C43.2851 94.7087 43.4036 94.6494 43.5812 94.6494C44.351 94.8271 45.1207 95.0047 45.8905 95.1231C46.0681 95.1231 46.1866 95.3008 46.1273 95.4784C46.1273 95.5968 46.0089 95.7153 45.8313 95.7153ZM62.3515 95.6561C62.2331 95.6561 62.1146 95.5376 62.0554 95.4192C62.0554 95.2416 62.1146 95.1231 62.2923 95.0639C63.062 94.9455 63.8318 94.7679 64.6016 94.5902C64.7792 94.531 64.8976 94.6494 64.9568 94.8271C65.016 95.0047 64.8976 95.1231 64.72 95.1824C63.9502 95.36 63.1805 95.5376 62.3515 95.6561ZM41.2127 94.5902H41.1535C40.3838 94.3534 39.614 94.1165 38.9034 93.8797C38.7258 93.8205 38.6666 93.6428 38.7258 93.5244C38.785 93.3468 38.9627 93.2876 39.0811 93.3468C39.8508 93.5836 40.5614 93.8205 41.3312 94.0573C41.5088 94.1165 41.568 94.2942 41.5088 94.4126C41.5088 94.531 41.3904 94.5902 41.2127 94.5902ZM66.97 94.5902C66.8516 94.5902 66.7332 94.531 66.674 94.3534C66.6148 94.1757 66.7332 94.0573 66.8516 93.9981C67.6214 93.7613 68.3319 93.5244 69.1017 93.2876C69.2793 93.2283 69.3977 93.2876 69.457 93.4652C69.5162 93.6428 69.457 93.7613 69.2793 93.8205C68.5096 94.0573 67.7398 94.3534 67.0293 94.531C67.0293 94.5902 66.97 94.5902 66.97 94.5902ZM36.7718 93.0507C36.7126 93.0507 36.7126 93.0507 36.6534 93.0507C35.9428 92.7547 35.1731 92.4586 34.4625 92.1033C34.3441 92.0441 34.2257 91.8665 34.3441 91.6888C34.4033 91.5704 34.581 91.452 34.7586 91.5704C35.4691 91.9257 36.1797 92.2217 36.9494 92.5178C37.1271 92.577 37.1863 92.7547 37.1271 92.9323C37.0087 92.9915 36.8902 93.0507 36.7718 93.0507ZM71.4702 93.0507C71.3518 93.0507 71.2333 92.9915 71.1741 92.8731C71.1149 92.6954 71.1741 92.577 71.3517 92.4586C72.0623 92.1625 72.7728 91.8665 73.4834 91.5112C73.661 91.452 73.7795 91.5112 73.8979 91.6296C73.9571 91.748 73.8979 91.9257 73.7794 92.0441C73.0689 92.3994 72.3584 92.6954 71.5886 92.9915C71.5294 93.0507 71.4702 93.0507 71.4702 93.0507ZM32.4493 91.0375C32.3901 91.0375 32.3309 91.0375 32.3309 90.9783C31.6203 90.623 30.9098 90.2085 30.2585 89.794C30.14 89.7348 30.0808 89.5572 30.14 89.3796C30.1992 89.2611 30.3769 89.2019 30.5545 89.2611C31.2059 89.6756 31.9164 90.0309 32.6269 90.4454C32.7454 90.5046 32.8046 90.6822 32.7454 90.8599C32.6862 90.9783 32.5677 91.0375 32.4493 91.0375ZM75.7335 91.0375C75.615 91.0375 75.4966 90.9783 75.4966 90.8599C75.4374 90.7414 75.4966 90.5638 75.615 90.4454C76.3256 90.0901 76.9769 89.6756 77.6875 89.2611C77.8059 89.2019 77.9835 89.2019 78.1019 89.3796C78.1612 89.498 78.1612 89.6756 77.9835 89.794C77.3322 90.2085 76.6216 90.623 75.9111 90.9783C75.8519 91.0375 75.7927 91.0375 75.7335 91.0375ZM28.3637 88.6098C28.3045 88.6098 28.2452 88.6098 28.186 88.5506C27.5347 88.1361 26.8834 87.6624 26.232 87.1887C26.1136 87.0703 26.0544 86.8926 26.1728 86.7742C26.2912 86.6558 26.4689 86.5966 26.5873 86.715C27.2386 87.1887 27.8308 87.6624 28.4821 88.0769C28.6005 88.1953 28.6597 88.3729 28.5413 88.4914C28.6005 88.5506 28.4821 88.6098 28.3637 88.6098ZM79.7599 88.6098C79.6415 88.6098 79.5823 88.5506 79.523 88.4914C79.4046 88.3729 79.4638 88.1953 79.5823 88.0769C80.2336 87.6624 80.8849 87.1887 81.477 86.715C81.5955 86.5966 81.7731 86.6558 81.8915 86.7742C82.0099 86.8926 81.9507 87.0703 81.8323 87.1887C81.181 87.6624 80.5296 88.1361 79.8783 88.5506C79.8783 88.5506 79.8191 88.6098 79.7599 88.6098ZM24.5741 85.7676C24.5149 85.7676 24.4557 85.7676 24.3964 85.7084C23.8043 85.1755 23.2122 84.6426 22.6201 84.1097C22.5017 83.9912 22.5017 83.8136 22.6201 83.6952C22.7385 83.5768 22.9161 83.5768 23.0346 83.6952C23.6267 84.2281 24.2188 84.761 24.8109 85.2347C24.9294 85.3531 24.9294 85.5308 24.8701 85.6492C24.7517 85.7084 24.6925 85.7676 24.5741 85.7676ZM83.5495 85.7676C83.4903 85.7676 83.3718 85.7084 83.3126 85.6492C83.1942 85.5308 83.2534 85.3531 83.3718 85.2347C83.964 84.7018 84.5561 84.2281 85.1482 83.6952C85.2666 83.5768 85.4443 83.5768 85.5627 83.6952C85.6811 83.8136 85.6811 83.9912 85.5627 84.1097C84.9706 84.6426 84.3784 85.1755 83.7863 85.7084C83.7271 85.7084 83.6679 85.7676 83.5495 85.7676ZM21.1398 82.5109C21.0806 82.5109 20.9621 82.4517 20.9029 82.3925C20.37 81.8004 19.8371 81.2675 19.3042 80.6161C19.1858 80.4977 19.1858 80.3201 19.3042 80.2017C19.4226 80.0832 19.6003 80.0832 19.7187 80.2017C20.2516 80.7938 20.7845 81.3859 21.3174 81.9188C21.4358 82.0372 21.4358 82.2149 21.3174 82.3333C21.2582 82.5109 21.199 82.5109 21.1398 82.5109ZM87.043 82.5109C86.9838 82.5109 86.8654 82.5109 86.8654 82.4517C86.7469 82.3333 86.7469 82.1557 86.8654 82.0372C87.3983 81.5043 87.9312 80.9122 88.4641 80.3201C88.5825 80.2017 88.7601 80.2017 88.8786 80.3201C88.997 80.4385 88.997 80.6161 88.8786 80.7346C88.3457 81.3267 87.8128 81.9188 87.2798 82.5109C87.2206 82.5109 87.1022 82.5109 87.043 82.5109ZM18.0015 78.9582C17.9423 78.9582 17.8239 78.899 17.7647 78.8398C17.291 78.2477 16.8173 77.5963 16.3436 76.945C16.2252 76.8266 16.2844 76.6489 16.4028 76.5305C16.5212 76.4121 16.6989 76.4713 16.8173 76.5897C17.291 77.241 17.7647 77.8332 18.2384 78.4845C18.3568 78.6029 18.2976 78.7806 18.1792 78.899C18.12 78.9582 18.0607 78.9582 18.0015 78.9582ZM90.1812 78.9582C90.122 78.9582 90.0628 78.9582 90.0036 78.899C89.8852 78.7806 89.826 78.6029 89.9444 78.4845C90.4181 77.8924 90.8918 77.241 91.3655 76.5897C91.4839 76.4713 91.6616 76.4121 91.78 76.5305C91.8984 76.6489 91.9576 76.8266 91.8392 76.945C91.3655 77.5963 90.8918 78.2477 90.4181 78.8398C90.3589 78.899 90.2404 78.9582 90.1812 78.9582ZM15.2186 75.1094C15.1001 75.1094 15.0409 75.0502 14.9817 74.991C14.5672 74.3396 14.1527 73.6291 13.7382 72.9778C13.679 72.8593 13.679 72.6817 13.8567 72.5633C13.9751 72.5041 14.1527 72.5041 14.2712 72.6817C14.6856 73.333 15.0409 74.0436 15.4554 74.6949C15.5146 74.8133 15.5146 74.991 15.337 75.1094C15.337 75.1094 15.2778 75.1094 15.2186 75.1094ZM92.905 75.1094C92.8458 75.1094 92.7866 75.1094 92.7274 75.0502C92.6089 74.991 92.5497 74.7541 92.6089 74.6357C93.0234 73.9844 93.4379 73.2738 93.8524 72.6225C93.9116 72.5041 94.0892 72.4449 94.2669 72.5041C94.3853 72.5633 94.4445 72.7409 94.3853 72.9186C93.9708 73.6291 93.5563 74.2804 93.1418 74.991C93.1418 75.0502 93.0234 75.1094 92.905 75.1094ZM12.9093 71.0238C12.7909 71.0238 12.6724 70.9646 12.6724 70.8461C12.3172 70.1356 11.9619 69.425 11.6658 68.7145C11.6066 68.5368 11.6658 68.4184 11.8435 68.3C12.0211 68.2408 12.1395 68.3 12.2579 68.4776C12.554 69.1882 12.9093 69.8987 13.2646 70.6093C13.3238 70.7277 13.2646 70.9053 13.1461 71.0238C12.9685 70.9646 12.9685 71.0238 12.9093 71.0238ZM95.2735 70.9645C95.2143 70.9645 95.1551 70.9646 95.1551 70.9053C95.0366 70.8461 94.9774 70.6685 95.0366 70.4909C95.3919 69.7803 95.7472 69.0698 96.0433 68.3592C96.1025 68.1816 96.2801 68.1224 96.4577 68.1816C96.6354 68.2408 96.6946 68.4184 96.6354 68.5961C96.3393 69.3066 95.984 70.0764 95.6288 70.7869C95.5103 70.9053 95.3919 70.9645 95.2735 70.9645ZM11.0145 66.6421C10.8961 66.6421 10.7776 66.5828 10.7184 66.4644C10.4224 65.6947 10.1855 64.9841 9.94867 64.2144C9.88945 64.0367 10.0079 63.9183 10.1263 63.8591C10.3039 63.7999 10.4224 63.9183 10.4816 64.0367C10.7184 64.8065 10.9553 65.517 11.2513 66.2868C11.3105 66.4644 11.2513 66.5828 11.0737 66.6421H11.0145ZM97.1683 66.6421C97.1091 66.6421 97.1091 66.6421 97.0499 66.6421C96.8722 66.5828 96.813 66.4052 96.8722 66.2868C97.1683 65.5762 97.4051 64.8065 97.642 64.0367C97.7012 63.8591 97.8788 63.7999 97.9973 63.8591C98.1749 63.9183 98.2341 64.0959 98.1749 64.2144C97.938 64.9841 97.642 65.7539 97.4051 66.4644C97.4051 66.5236 97.2867 66.6421 97.1683 66.6421ZM9.53418 62.1419C9.41575 62.1419 9.29733 62.0827 9.23812 61.9051C9.06048 61.1353 8.82363 60.3656 8.70521 59.5958C8.646 59.4182 8.76442 59.2997 8.94206 59.2405C9.11969 59.1813 9.23812 59.2997 9.29733 59.4774C9.47497 60.2471 9.6526 61.0169 9.83024 61.7867C9.88945 61.9643 9.77103 62.0827 9.59339 62.1419C9.59339 62.1419 9.59339 62.1419 9.53418 62.1419ZM98.6486 62.0827H98.5894C98.4117 62.0235 98.3525 61.9051 98.3525 61.7274C98.5302 60.9577 98.7078 60.1879 98.8854 59.4182C98.9447 59.2405 99.0631 59.1221 99.2407 59.1813C99.4184 59.2405 99.4776 59.359 99.4776 59.5366C99.2999 60.3064 99.1223 61.0761 98.9446 61.8459C98.8854 62.0235 98.767 62.0827 98.6486 62.0827ZM8.58678 57.5234C8.46836 57.5234 8.29072 57.4049 8.29072 57.2865C8.1723 56.5168 8.05387 55.6878 7.99466 54.918C7.99466 54.7404 8.11309 54.5628 8.23151 54.5628C8.40915 54.5628 8.52757 54.6812 8.52757 54.7996C8.58678 55.5694 8.70521 56.3391 8.82363 57.1089C8.88284 57.3457 8.82363 57.4642 8.58678 57.5234ZM99.596 57.4642C99.4184 57.4642 99.2999 57.2865 99.2999 57.1089C99.4184 56.3391 99.5368 55.5694 99.596 54.7996C99.596 54.622 99.7736 54.5036 99.8921 54.5628C100.07 54.5628 100.188 54.7404 100.129 54.8588C100.07 55.6286 99.9513 56.4576 99.8328 57.2273C99.8328 57.3457 99.7144 57.4642 99.596 57.4642ZM8.11309 52.7864C7.93545 52.7864 7.81702 52.668 7.81702 52.4903C7.75781 51.7206 7.75781 50.8916 7.75781 50.1218C7.75781 49.9442 7.87624 49.8258 8.05387 49.8258C8.23151 49.8258 8.34993 49.9442 8.34993 50.1218C8.34993 50.8916 8.34993 51.7206 8.40915 52.4903C8.40915 52.668 8.29072 52.7864 8.11309 52.7864ZM100.07 52.7272C99.8921 52.7272 99.7736 52.6088 99.7736 52.4311C99.8328 51.6614 99.8328 50.8324 99.8328 50.0626V49.9442C99.8328 49.7666 99.9513 49.6481 100.129 49.6481C100.307 49.6481 100.425 49.7666 100.425 49.9442V50.0626C100.425 50.8324 100.425 51.6614 100.366 52.4311C100.366 52.6088 100.247 52.7272 100.07 52.7272ZM8.11309 48.0494C7.93545 48.0494 7.81702 47.931 7.81702 47.7534C7.87624 46.9836 7.93545 46.1546 7.99466 45.3849C7.99466 45.2072 8.1723 45.0888 8.29072 45.148C8.46836 45.148 8.58678 45.3257 8.52757 45.4441C8.46836 46.2138 8.40915 47.0428 8.34993 47.8126C8.40915 47.931 8.23151 48.0494 8.11309 48.0494ZM100.07 47.931C99.8921 47.931 99.7736 47.8126 99.7736 47.6349C99.7144 46.8652 99.6552 46.0362 99.596 45.2664C99.596 45.0888 99.7144 44.9704 99.8328 44.9704C100.01 44.9704 100.129 45.0888 100.129 45.2072C100.188 45.977 100.247 46.806 100.307 47.5757C100.366 47.7534 100.247 47.8718 100.07 47.931ZM8.58678 43.3717C8.40915 43.3717 8.29072 43.194 8.29072 43.0164C8.40915 42.2466 8.52757 41.4176 8.70521 40.6479C8.76442 40.4702 8.88284 40.3518 9.06048 40.411C9.23812 40.4702 9.29733 40.5887 9.29733 40.7663C9.11969 41.5361 9.00127 42.3058 8.88284 43.0756C8.82363 43.2532 8.70521 43.3717 8.58678 43.3717ZM99.596 43.194C99.4776 43.194 99.2999 43.0756 99.2999 42.9572C99.1815 42.1874 99.0631 41.4176 98.8854 40.6479C98.8262 40.4702 98.9446 40.3518 99.1223 40.2926C99.2999 40.2334 99.4184 40.3518 99.4776 40.5295C99.6552 41.2992 99.7736 42.069 99.8921 42.898C99.8921 43.0164 99.7736 43.194 99.596 43.194ZM9.53418 38.6939H9.47497C9.29733 38.6347 9.23812 38.5162 9.23812 38.3386C9.41575 37.5689 9.6526 36.7991 9.88945 36.0293C9.94867 35.8517 10.1263 35.7925 10.2447 35.8517C10.4224 35.9109 10.4816 36.0885 10.4224 36.207C10.1855 36.9767 9.94866 37.6873 9.77103 38.457C9.77103 38.6347 9.6526 38.6939 9.53418 38.6939ZM98.5894 38.5755C98.471 38.5755 98.3525 38.5162 98.2933 38.3386C98.1157 37.5689 97.8788 36.7991 97.642 36.0885C97.5828 35.9109 97.7012 35.7925 97.8196 35.7333C97.9973 35.6741 98.1157 35.7925 98.1749 35.9109C98.4117 36.6807 98.6486 37.4504 98.8262 38.2202C98.8854 38.3978 98.767 38.5162 98.5894 38.5755C98.6486 38.5755 98.6486 38.5755 98.5894 38.5755ZM10.9553 34.1938C10.8961 34.1938 10.8961 34.1938 10.8368 34.1938C10.6592 34.1345 10.6 33.9569 10.6592 33.8385C10.9553 33.0687 11.2513 32.3582 11.5474 31.6476C11.6066 31.47 11.7842 31.4108 11.9619 31.47C12.1395 31.5292 12.1987 31.7068 12.1395 31.8845C11.8435 32.595 11.5474 33.3648 11.2513 34.0753C11.1921 34.1345 11.0737 34.1938 10.9553 34.1938ZM97.1683 34.0753C97.0499 34.0753 96.9314 34.0161 96.8722 33.8977C96.5762 33.1871 96.2801 32.4174 95.984 31.7068C95.9248 31.5292 95.984 31.4108 96.1617 31.2924C96.3393 31.2331 96.4577 31.2924 96.5762 31.47C96.8722 32.1805 97.2275 32.9503 97.4643 33.6608C97.5236 33.8385 97.4643 33.9569 97.2867 34.0161C97.2275 34.0161 97.1683 34.0753 97.1683 34.0753ZM12.8501 29.812C12.7909 29.812 12.7316 29.812 12.7316 29.7528C12.6132 29.6936 12.554 29.516 12.6132 29.3384C12.9685 28.6278 13.3238 27.9173 13.7382 27.2067C13.7975 27.0883 13.9751 27.0291 14.1527 27.0883C14.2712 27.1475 14.3304 27.3251 14.2712 27.5028C13.8567 28.2133 13.5014 28.8647 13.1461 29.5752C13.0869 29.7528 12.9685 29.812 12.8501 29.812ZM95.2143 29.6936C95.0959 29.6936 94.9774 29.6344 94.9774 29.516C94.6222 28.8054 94.2669 28.0949 93.8524 27.4436C93.7932 27.3251 93.7932 27.1475 93.9708 27.0291C94.0892 26.9699 94.2669 26.9699 94.3853 27.1475C94.7998 27.858 95.1551 28.5686 95.5103 29.2199C95.5695 29.3384 95.5103 29.516 95.3919 29.6344C95.3327 29.6936 95.2735 29.6936 95.2143 29.6936ZM15.2186 25.7264C15.1593 25.7264 15.1001 25.7264 15.0409 25.6672C14.9225 25.608 14.8633 25.3711 14.9225 25.2527C15.337 24.6014 15.8107 23.8908 16.2844 23.2987C16.4028 23.1803 16.5804 23.1211 16.6989 23.2395C16.8173 23.3579 16.8765 23.5356 16.7581 23.654C16.2844 24.3053 15.8699 24.9566 15.4554 25.608C15.3962 25.6672 15.2778 25.7264 15.2186 25.7264ZM92.905 25.608C92.7866 25.608 92.7274 25.5488 92.6682 25.4896C92.2537 24.8382 91.78 24.1869 91.3655 23.5356C91.2471 23.4171 91.3063 23.2395 91.4247 23.1211C91.5431 23.0026 91.7208 23.0619 91.8392 23.1803C92.3129 23.8316 92.7274 24.4829 93.2011 25.1343C93.2603 25.2527 93.2603 25.4303 93.0826 25.5488C93.0234 25.608 92.9642 25.608 92.905 25.608ZM17.9423 21.8184C17.8831 21.8184 17.8239 21.8184 17.7647 21.7592C17.6463 21.6408 17.587 21.4631 17.7055 21.3447C18.1792 20.7526 18.7121 20.1012 19.245 19.5091C19.3634 19.3907 19.541 19.3907 19.6595 19.5091C19.7779 19.6275 19.7779 19.8052 19.6595 19.9236C19.1266 20.5157 18.6529 21.1078 18.1792 21.7592C18.12 21.8184 18.0607 21.8184 17.9423 21.8184ZM90.122 21.7592C90.0628 21.7592 89.9444 21.7 89.8852 21.6408C89.4115 21.0486 88.8786 20.3973 88.3457 19.8644C88.2272 19.746 88.2272 19.5683 88.3457 19.4499C88.4641 19.3315 88.6417 19.3315 88.7601 19.4499C89.2931 20.042 89.826 20.6342 90.2997 21.2855C90.4181 21.4039 90.3589 21.5815 90.2405 21.7C90.2997 21.7592 90.1812 21.7592 90.122 21.7592ZM21.0806 18.2657C21.0214 18.2657 20.9029 18.2657 20.9029 18.2065C20.7845 18.088 20.7845 17.9104 20.9029 17.792C21.4358 17.1998 22.028 16.6669 22.6201 16.134C22.7385 16.0156 22.9161 16.0156 23.0346 16.134C23.153 16.2524 23.153 16.4301 23.0346 16.5485C22.4424 17.0814 21.9095 17.6143 21.3766 18.2065C21.2582 18.2657 21.1398 18.2657 21.0806 18.2657ZM86.9838 18.2065C86.9246 18.2065 86.8061 18.1472 86.7469 18.088C86.214 17.5551 85.6219 16.963 85.0298 16.4301C84.9114 16.3117 84.9114 16.134 85.0298 16.0156C85.1482 15.8972 85.3258 15.8972 85.4443 16.0156C86.0364 16.5485 86.6285 17.1406 87.1614 17.6735C87.2798 17.792 87.2798 17.9696 87.1614 18.088C87.1614 18.1472 87.1022 18.2065 86.9838 18.2065ZM24.5741 15.0682C24.5149 15.0682 24.3965 15.009 24.3372 14.9498C24.2188 14.8314 24.278 14.6537 24.3964 14.5353C24.9886 14.0024 25.6399 13.5287 26.2912 13.055C26.4097 12.9366 26.5873 12.9958 26.7057 13.1142C26.8242 13.2326 26.7649 13.4103 26.6465 13.5287C25.9952 14.0024 25.4031 14.4761 24.8109 15.009C24.6925 15.009 24.6333 15.0682 24.5741 15.0682ZM83.5495 15.009C83.4903 15.009 83.431 15.009 83.3718 14.9498C82.7797 14.4761 82.1284 13.9432 81.5363 13.4695C81.4178 13.351 81.3586 13.1734 81.477 13.055C81.5955 12.9366 81.7731 12.8773 81.8915 12.9958C82.5429 13.4695 83.135 13.9432 83.7863 14.4761C83.9047 14.5945 83.9047 14.7721 83.8455 14.8906C83.6679 14.9498 83.6087 15.009 83.5495 15.009ZM28.3637 12.226C28.2452 12.226 28.186 12.1668 28.1268 12.1076C28.0084 11.9892 28.0676 11.8115 28.186 11.6931C28.8374 11.2786 29.4887 10.8049 30.1992 10.3904C30.3177 10.3312 30.4953 10.3312 30.6137 10.5089C30.6729 10.6273 30.6729 10.8049 30.4953 10.9233C29.844 11.3378 29.1334 11.7523 28.5413 12.1668C28.4821 12.1668 28.4229 12.226 28.3637 12.226ZM79.7599 12.1668C79.7007 12.1668 79.6415 12.1668 79.5823 12.1076C78.9309 11.6931 78.2796 11.2194 77.569 10.8641C77.4506 10.8049 77.3914 10.6273 77.4506 10.4496C77.5098 10.272 77.6875 10.272 77.8651 10.3312C78.5164 10.7457 79.227 11.1602 79.8783 11.6339C79.9967 11.7523 80.0559 11.93 79.9375 12.0484C79.9375 12.1076 79.8191 12.1668 79.7599 12.1668ZM32.3901 9.7391C32.2717 9.7391 32.1533 9.67989 32.1533 9.56147C32.094 9.44304 32.1532 9.2654 32.2717 9.14698C32.9822 8.79171 33.6928 8.43643 34.4033 8.08116C34.5217 8.02195 34.6994 8.08116 34.8178 8.19958C34.877 8.31801 34.8178 8.49565 34.6994 8.61407C33.9888 8.96934 33.2783 9.32462 32.6269 9.67989C32.5085 9.7391 32.4493 9.7391 32.3901 9.7391ZM75.6742 9.67989C75.615 9.67989 75.5558 9.67989 75.5558 9.62068C74.8453 9.2654 74.1347 8.91013 73.4242 8.55486C73.2465 8.49565 73.1873 8.31801 73.3058 8.14037C73.365 8.02195 73.5426 7.90352 73.7202 8.02195C74.4308 8.37722 75.1413 8.73249 75.8519 9.08777C75.9703 9.14698 76.0295 9.32462 75.9703 9.50225C75.8519 9.62068 75.7927 9.67989 75.6742 9.67989ZM36.6534 7.72589C36.535 7.72589 36.4165 7.66667 36.3573 7.54825C36.2981 7.37061 36.3573 7.25219 36.535 7.13376C37.2455 6.8377 38.0153 6.54164 38.785 6.30479C38.9627 6.24558 39.0811 6.30479 39.1403 6.48243C39.1995 6.66007 39.1403 6.77849 38.9627 6.8377C38.1929 7.07455 37.4824 7.37061 36.7718 7.66667C36.7718 7.72589 36.7126 7.72589 36.6534 7.72589ZM71.3517 7.66667C71.2925 7.66667 71.2925 7.66667 71.2333 7.66667C70.5228 7.37061 69.753 7.07455 69.0425 6.8377C68.8648 6.77849 68.8056 6.60085 68.8648 6.48243C68.924 6.30479 69.1017 6.24558 69.2201 6.30479C69.9899 6.54164 70.7004 6.8377 71.4702 7.13376C71.6478 7.19298 71.707 7.37061 71.6478 7.54825C71.5886 7.60746 71.4702 7.66667 71.3517 7.66667ZM41.1535 6.18637C41.0351 6.18637 40.9167 6.12716 40.8574 5.94952C40.7982 5.77188 40.9167 5.65346 41.0351 5.59425C41.8048 5.3574 42.5746 5.17976 43.3444 5.00212C43.522 4.94291 43.6404 5.06134 43.6996 5.23897C43.7589 5.41661 43.6404 5.53503 43.4628 5.59425C42.693 5.77188 41.9233 5.94952 41.2127 6.18637H41.1535ZM66.8516 6.12716H66.7924C66.0227 5.89031 65.2529 5.71267 64.5423 5.53503C64.3647 5.47582 64.3055 5.3574 64.3055 5.17976C64.3647 5.00212 64.4831 4.94291 64.6608 4.94291C65.4305 5.12055 66.2003 5.29818 66.97 5.53503C67.1477 5.59425 67.2069 5.77188 67.1477 5.89031C67.1477 6.06794 67.0293 6.12716 66.8516 6.12716ZM45.7721 5.06134C45.6536 5.06134 45.5352 4.94291 45.476 4.82449C45.476 4.64685 45.5352 4.52843 45.7129 4.46921C46.4826 4.35079 47.3116 4.23236 48.0813 4.11394C48.259 4.11394 48.3774 4.23236 48.4366 4.35079C48.4958 4.46921 48.3182 4.64685 48.1998 4.70606C47.3708 4.82449 46.601 4.94291 45.7721 5.06134ZM62.2923 5.06134C62.2331 5.06134 62.2331 5.06134 62.2923 5.06134C61.4633 4.94291 60.6936 4.82449 59.9238 4.70606C59.7462 4.70606 59.6277 4.52843 59.6869 4.35079C59.6869 4.17315 59.8646 4.05473 60.0422 4.11394C60.812 4.23236 61.6409 4.35079 62.4107 4.46921C62.5883 4.46921 62.7068 4.64685 62.6476 4.82449C62.5291 4.94291 62.4107 5.06134 62.2923 5.06134ZM50.4498 4.46921C50.2722 4.46921 50.1538 4.35079 50.1538 4.17315C50.1538 3.99552 50.2722 3.87709 50.4498 3.87709C51.2196 3.81788 52.0486 3.75867 52.8183 3.75867C52.9367 3.75867 53.1144 3.87709 53.1144 4.05473C53.1144 4.23236 52.996 4.35079 52.8183 4.35079C52.0486 4.35079 51.2788 4.41 50.4498 4.46921ZM57.5553 4.46921C56.7855 4.41 55.9566 4.35079 55.1868 4.35079C55.0092 4.35079 54.8908 4.23236 54.8908 4.05473C54.8908 3.87709 55.0092 3.75867 55.1868 3.75867C55.9566 3.75867 56.7855 3.81788 57.5553 3.87709C57.7329 3.87709 57.8514 4.05473 57.8514 4.17315C57.8514 4.35079 57.7329 4.46921 57.5553 4.46921Z" fill="white"/>
<defs>
<filter id="filter0_d_2_416" x="0" y="0" width="108" height="108" filterUnits="userSpaceOnUse" color-interpolation-filters="sRGB">
<feFlood flood-opacity="0" result="BackgroundImageFix"/>
<feColorMatrix in="SourceAlpha" type="matrix" values="0 0 0 0 0 0 0 0 0 0 0 0 0 0 0 0 0 0 127 0" result="hardAlpha"/>
<feOffset dy="4"/>
<feGaussianBlur stdDeviation="2"/>
<feComposite in2="hardAlpha" operator="out"/>
<feColorMatrix type="matrix" values="0 0 0 0 0 0 0 0 0 0 0 0 0 0 0 0 0 0 0.25 0"/>
<feBlend mode="normal" in2="BackgroundImageFix" result="effect1_dropShadow_2_416"/>
<feBlend mode="normal" in="SourceGraphic" in2="effect1_dropShadow_2_416" result="shape"/>
</filter>
<linearGradient id="paint0_linear_2_416" x1="54.062" y1="1.8634" x2="54.062" y2="98.2609" gradientUnits="userSpaceOnUse">
<stop stop-color="#FE736B"/>
<stop offset="1" stop-color="#DD3D32"/>
</linearGradient>
</defs>
</svg>
